<svg width="356" height="83" viewBox="0 0 356 83" fill="none" xmlns="http://www.w3.org/2000/svg">
<g clip-path="url(#clip0_15_27)">
<path d="M70.0592 53.5271V58.1425H64.6154V82.8762H100V58.1425H94.5562V53.5271C94.5562 46.7816 89.1124 41.3378 82.3669 41.3378C75.6213 41.3378 70.0592 46.7816 70.0592 53.5271ZM94.4379 77.4324H70.0592V63.7046H94.3195V77.4324H94.4379ZM88.8757 53.5271V58.1425H75.6213V53.5271C75.6213 49.8585 78.5799 46.8999 82.2485 46.8999C85.9172 46.8999 88.8757 49.8585 88.8757 53.5271ZM0 46.1898V36.249C0 32.462 3.07692 29.5034 6.74556 29.5034H7.81065C9.94083 24.178 13.4911 19.3259 18.1065 15.3023C18.6982 13.0537 18.2249 10.5685 16.568 7.96499C15.503 6.30818 15.503 4.178 16.568 2.40286C17.6331 0.74605 19.5266 -0.200695 21.5385 0.0359911C29.4675 0.982737 33.7278 5.00641 35.858 8.20167L31.2426 11.2786C29.8225 9.14842 26.9823 6.42652 21.5385 5.59812C23.6686 9.3851 24.2604 13.1721 23.3136 16.8407V18.0242L22.3669 18.8526C17.6331 22.7579 14.0828 27.61 12.3077 33.0537L11.5976 35.0656L9.70414 34.9472H6.86391C6.15385 34.9472 5.56213 35.5389 5.56213 36.249V46.1898C5.56213 46.8999 6.15385 47.4916 6.86391 47.4916H11.716L12.3077 49.5034C13.7278 54.4739 16.8047 59.2076 21.0651 62.9946L21.1834 63.1129C21.3018 63.2313 21.5385 63.3496 21.6568 63.4679H21.7752C26.6272 67.8466 27.1006 73.1721 27.2189 74.5922V74.7105V77.4324H39.2899V71.752L42.3669 72.107C45.6805 72.462 48.9941 72.462 52.3077 71.9887L55.3846 71.5153V77.4324H59.0533V82.9946H54.9112C52.1894 82.9946 49.9408 80.7461 49.9408 78.0242V77.7875C48.284 77.9058 46.6272 77.9058 44.8521 77.9058V78.0242C44.8521 80.7461 42.6036 82.9946 39.8817 82.9946H26.5089C23.787 82.9946 21.5385 80.7461 21.5385 78.0242V74.7105C21.5385 74.0005 21.1834 70.5685 17.9882 67.61C17.8698 67.4916 17.6331 67.2549 17.5148 67.1366L17.3964 67.0182C12.8994 62.9946 9.5858 58.1425 7.57396 52.8171H6.74556C2.95858 52.9354 0 49.8585 0 46.1898ZM80.9467 31.9887L86.2722 30.5685L87.1006 33.5271L87.8106 36.249L82.4852 37.5508L81.7751 34.5922L80.9467 31.9887ZM76.0947 23.5863L80.7101 20.5094L82.2485 22.7579C82.3669 22.8762 82.4852 23.1129 82.6035 23.2313L84.142 25.5981L79.5266 28.5567L77.9882 26.1898C77.8698 26.0715 77.8698 25.9532 77.7515 25.8348L76.0947 23.5863ZM71.0059 18.7342L68.8757 17.0774L72.3077 12.8171L74.4379 14.5922C74.5562 14.7105 74.6746 14.8289 74.9112 14.9472L77.0414 16.7224L73.4911 20.9827L71.0059 18.7342ZM62.6036 13.7638L60.1183 12.6987L62.2485 7.60996L64.7337 8.67504C64.8521 8.79339 65.0888 8.79339 65.2071 8.91173L67.6923 9.97682L65.4438 15.0656L62.9586 14.0005C62.8402 13.8821 62.7219 13.7638 62.6036 13.7638ZM53.1361 11.0419L50.4142 10.5685L51.2426 5.12475L53.9645 5.59812C54.0828 5.59812 54.3195 5.59812 54.4379 5.71646L57.1598 6.18984L56.213 11.6336L53.4911 11.1603C53.3728 11.0419 53.2544 11.0419 53.1361 11.0419ZM40.5917 10.9236L40.1183 5.36144L45.9172 4.88806L46.2722 10.4502L40.5917 10.9236Z" fill="black"/>
<path d="M123 10H120V74H123V10Z" fill="black"/>
<path d="M150.972 55.8638C142.246 55.8638 137.454 51.5259 137 44.4136H144.818C144.97 47.0366 146.483 49.6595 151.174 49.6595C155.108 49.6595 157.126 48.0958 157.126 45.9269C157.126 43.2535 153.747 42.5473 149.812 41.6898C144.314 40.3783 137.605 38.7642 137.605 30.5422C137.605 24.4893 142.296 20 150.569 20C158.992 20 163.633 24.5902 164.137 31.3493H156.269C156.117 28.575 154.604 26.3556 150.367 26.3556C147.24 26.3556 145.172 27.6166 145.172 29.8865C145.172 32.8121 148.602 33.6192 152.536 34.5271C158.185 35.7881 164.945 37.2005 164.945 44.9685C164.945 51.2736 160.001 55.8638 150.972 55.8638V55.8638ZM181.338 35.4351C177.303 35.4351 174.276 38.512 174.276 42.396C174.276 46.2295 177.404 49.3569 181.338 49.3569C185.171 49.3569 188.148 46.2295 188.148 42.396C188.148 38.512 185.171 35.4351 181.338 35.4351ZM181.943 55.5612C179.018 55.5612 176.193 54.6532 174.377 53.2409V64.0857H167.366V29.3317H174.377V31.3493C176.193 29.9369 179.018 29.0794 181.943 29.0794C189.005 29.0794 195.008 34.7793 195.008 42.2446C195.008 49.71 189.005 55.5612 181.943 55.5612ZM222.801 49.6595C220.279 53.4426 216.294 55.8134 210.544 55.8134C202.271 55.8134 196.924 50.0126 196.924 42.3455C196.924 34.8802 202.473 28.8272 210.594 28.8272C218.765 28.8272 223.709 34.4767 223.709 41.9924C223.709 43.0013 223.608 44.3127 223.608 44.4641H203.835C204.591 47.7427 207.063 49.8613 210.695 49.8613C213.822 49.8613 216.092 48.4994 217.555 46.4313L222.801 49.6595ZM210.544 34.5776C207.265 34.5776 204.995 36.343 204.087 39.2686H216.647C215.89 36.1412 213.368 34.5776 210.544 34.5776V34.5776ZM233.04 29.3317V31.9546C234.301 30.4918 236.975 28.8777 240.556 28.8777C246.609 28.8777 250.544 33.0643 250.544 39.319V55.2081H243.583V40.5296C243.583 37.4527 241.817 35.3342 238.841 35.3342C235.411 35.3342 233.141 37.5032 233.141 41.0845V55.2081H226.13V29.3317H233.04ZM266.584 49.3569C270.619 49.3569 273.646 46.2799 273.646 42.396C273.646 38.5624 270.518 35.4351 266.584 35.4351C262.75 35.4351 259.774 38.5624 259.774 42.396C259.774 46.2799 262.75 49.3569 266.584 49.3569ZM273.545 55.2081V53.2913C271.729 54.7037 268.904 55.5612 265.979 55.5612C258.917 55.5612 252.914 49.8613 252.914 42.396C252.914 34.9306 258.917 29.0794 265.979 29.0794C268.904 29.0794 271.729 29.9874 273.545 31.3997V20.6557H280.556V55.2081H273.545V55.2081ZM290.392 27.1122H283.381V20.6557H290.392V27.1122ZM290.392 55.2081H283.381V29.3317H290.392V55.2081ZM309.711 26.053H307.29C305.02 26.053 303.86 26.9105 303.86 29.0794V29.3317H309.711V35.5864H303.86V55.2081H296.849V35.5864H292.813V29.3317H296.849V29.029C296.849 23.4805 300.279 20.3026 306.987 20.3026H309.711V26.053ZM337 29.3317L328.324 54.3001C325.903 61.2106 322.776 64.1362 316.42 64.1362H313.898V57.831H316.016C318.337 57.831 319.85 56.5195 320.808 54.5019L311.174 29.3317H319.194L324.491 45.2711L329.736 29.3317H337V29.3317Z" fill="black"/>
</g>
<defs>
<clipPath id="clip0_15_27">
<rect width="356" height="82.9946" fill="white"/>
</clipPath>
</defs>
</svg>
