<svg width="371" height="81" viewBox="0 0 371 81" fill="none" xmlns="http://www.w3.org/2000/svg">
<g clip-path="url(#clip0_5_14)">
<path d="M67.2153 51.3543V55.7824H61.9925V79.5121H95.9408V55.7824H90.718V51.3543C90.718 44.8826 85.4952 39.6598 79.0234 39.6598C72.5517 39.6598 67.2153 44.8826 67.2153 51.3543ZM90.6044 74.2893H67.2153V61.1187H90.4909V74.2893H90.6044ZM85.2681 51.3543V55.7824H72.5517V51.3543C72.5517 47.8346 75.3902 44.9961 78.9099 44.9961C82.4296 44.9961 85.2681 47.8346 85.2681 51.3543ZM0 44.3149V34.7776C0 31.1443 2.95202 28.3058 6.47174 28.3058H7.4936C9.53731 23.1966 12.9435 18.5415 17.3715 14.6811C17.9392 12.5239 17.4851 10.1395 15.8955 7.64167C14.8737 6.05212 14.8737 4.00841 15.8955 2.30532C16.9174 0.715767 18.734 -0.192549 20.6642 0.0345302C28.2713 0.942845 32.3587 4.80318 34.4024 7.86875L29.9744 10.8208C28.6119 8.77706 25.887 6.16566 20.6642 5.37088C22.7079 9.00414 23.2756 12.6374 22.3673 16.1571V17.2925L21.4589 18.0873C16.9174 21.8341 13.5112 26.4892 11.8081 31.712L11.1269 33.6422L9.31023 33.5287H6.58528C5.90405 33.5287 5.33635 34.0963 5.33635 34.7776V44.3149C5.33635 44.9961 5.90405 45.5638 6.58528 45.5638H11.2404L11.8081 47.494C13.1706 52.2627 16.1226 56.8042 20.21 60.4375L20.3236 60.551C20.4371 60.6646 20.6642 60.7781 20.7777 60.8916H20.8912C25.5464 65.0926 26.0005 70.2019 26.1141 71.5643V71.6779V74.2893H37.6951V68.8394L40.6471 69.18C43.8262 69.5206 47.0053 69.5206 50.1844 69.0665L53.1364 68.6123V74.2893H56.6562V79.6256H52.6823C50.0709 79.6256 47.9136 77.4684 47.9136 74.857V74.6299C46.3241 74.7434 44.7345 74.7435 43.0314 74.7435V74.857C43.0314 77.4684 40.8742 79.6256 38.2628 79.6256H25.4328C22.8214 79.6256 20.6642 77.4684 20.6642 74.857V71.6779C20.6642 70.9967 20.3235 67.704 17.258 64.8655C17.1444 64.752 16.9174 64.5249 16.8038 64.4114L16.6903 64.2978C12.3758 60.4375 9.19669 55.7824 7.26652 50.6731H6.47174C2.83848 50.7866 0 47.8346 0 44.3149ZM77.6609 30.6902L82.7702 29.3277L83.565 32.1662L84.2462 34.7776L79.1369 36.0265L78.4557 33.188L77.6609 30.6902ZM73.0058 22.6289L77.4339 19.6768L78.9099 21.8341C79.0234 21.9476 79.1369 22.1747 79.2505 22.2883L80.7265 24.559L76.2985 27.3975L74.8224 25.1267C74.7089 25.0132 74.7089 24.8997 74.5954 24.7861L73.0058 22.6289ZM68.1236 17.9738L66.0799 16.3842L69.3726 12.2968L71.4163 13.9999C71.5298 14.1134 71.6434 14.227 71.8704 14.3405L73.9141 16.0436L70.508 20.131L68.1236 17.9738ZM60.0623 13.2051L57.678 12.1832L59.7217 7.30105L62.106 8.32291C62.2196 8.43644 62.4467 8.43645 62.5602 8.54999L64.9445 9.57184L62.7873 14.454L60.403 13.4322C60.2894 13.3186 60.1759 13.2051 60.0623 13.2051ZM50.9792 10.5937L48.3678 10.1395L49.1626 4.91672L51.774 5.37088C51.8875 5.37088 52.1146 5.37088 52.2281 5.48442L54.8395 5.93858L53.9312 11.1614L51.3198 10.7072C51.2063 10.5937 51.0927 10.5937 50.9792 10.5937ZM38.944 10.4802L38.4899 5.1438L44.0533 4.68965L44.3939 10.026L38.944 10.4802Z" fill="white"/>
<path d="M116 55.6759H125.757C125.95 68.1373 126.916 70.5523 130.393 70.5523C135.127 70.5523 135.127 66.5917 135.127 56.0623C135.127 40.6062 116 44.76 116 24.1841C116 12.1091 116 1 130.49 1C141.213 1 144.111 7.08583 144.787 21.6725H135.127C134.74 11.143 133.581 8.72804 130.49 8.72804C125.757 8.72804 125.757 13.9445 125.757 24.1841C125.757 39.1572 144.98 33.8442 144.98 56.0623C144.98 69.5863 144.98 80.2124 130.393 80.2124C119.188 80.2124 116.58 73.5469 116 55.6759V55.6759ZM152.708 79.2464V1.966H168.357C178.307 1.966 180.916 8.05183 181.688 22.6385V25.7297C180.916 40.3164 178.307 46.4022 168.357 46.4022H162.368V79.2464H152.708V79.2464ZM162.368 38.6742H168.357C171.255 38.6742 172.318 36.2592 172.704 25.7297V22.6385C172.318 12.1091 171.255 9.69404 168.357 9.69404H162.368V38.6742ZM188.45 79.2464V1.966H210.668V9.69404H198.11V34.8102H208.736V42.5382H198.11V69.5863H210.668V79.2464H188.45V79.2464ZM217.43 79.2464V1.966H226.125L238.779 49.3002L238.683 48.3342V1.966H248.343V79.2464H239.649L226.994 36.7422L227.091 37.7082V79.2464H217.43ZM258.003 79.2464V1.966H272.493C286.983 1.966 286.983 12.5921 286.983 38.5776C286.983 68.5237 286.983 79.2464 272.493 79.2464H258.003ZM267.663 69.5863H272.493C277.902 69.5863 277.902 65.5291 277.902 38.5776C277.902 14.4275 277.902 9.69404 272.493 9.69404H267.663V69.5863ZM295.677 79.2464V1.966H305.337V79.2464H295.677ZM314.997 79.2464V1.966H335.283V9.69404H324.657V38.6742H333.351V46.4022H324.657V79.2464H314.997ZM338.181 1.966H347.841L353.637 31.7189H354.603L360.399 1.966H370.059L358.95 45.6294V79.2464H349.29V45.6294L338.181 1.966Z" fill="white"/>
</g>
<defs>
<clipPath id="clip0_5_14">
<rect width="370.059" height="80.2124" fill="white"/>
</clipPath>
</defs>
</svg>
