<svg width="320" height="83" viewBox="0 0 320 83" fill="none" xmlns="http://www.w3.org/2000/svg">
<g clip-path="url(#clip0_15_17)">
<path d="M70.0592 53.5271V58.1425H64.6154V82.8762H100V58.1425H94.5562V53.5271C94.5562 46.7816 89.1124 41.3378 82.3669 41.3378C75.6213 41.3378 70.0592 46.7816 70.0592 53.5271ZM94.4379 77.4324H70.0592V63.7046H94.3195V77.4324H94.4379ZM88.8757 53.5271V58.1425H75.6213V53.5271C75.6213 49.8585 78.5799 46.8999 82.2485 46.8999C85.9172 46.8999 88.8757 49.8585 88.8757 53.5271ZM0 46.1898V36.249C0 32.462 3.07692 29.5034 6.74556 29.5034H7.81065C9.94083 24.178 13.4911 19.3259 18.1065 15.3023C18.6982 13.0537 18.2249 10.5685 16.568 7.96499C15.503 6.30818 15.503 4.178 16.568 2.40286C17.6331 0.74605 19.5266 -0.200695 21.5385 0.0359911C29.4675 0.982737 33.7278 5.00641 35.858 8.20167L31.2426 11.2786C29.8225 9.14842 26.9823 6.42652 21.5385 5.59812C23.6686 9.3851 24.2604 13.1721 23.3136 16.8407V18.0242L22.3669 18.8526C17.6331 22.7579 14.0828 27.61 12.3077 33.0537L11.5976 35.0656L9.70414 34.9472H6.86391C6.15385 34.9472 5.56213 35.5389 5.56213 36.249V46.1898C5.56213 46.8999 6.15385 47.4916 6.86391 47.4916H11.716L12.3077 49.5034C13.7278 54.4739 16.8047 59.2076 21.0651 62.9946L21.1834 63.1129C21.3018 63.2313 21.5385 63.3496 21.6568 63.4679H21.7752C26.6272 67.8466 27.1006 73.1721 27.2189 74.5922V74.7105V77.4324H39.2899V71.752L42.3669 72.107C45.6805 72.462 48.9941 72.462 52.3077 71.9887L55.3846 71.5153V77.4324H59.0533V82.9946H54.9112C52.1894 82.9946 49.9408 80.7461 49.9408 78.0242V77.7875C48.284 77.9058 46.6272 77.9058 44.8521 77.9058V78.0242C44.8521 80.7461 42.6036 82.9946 39.8817 82.9946H26.5089C23.787 82.9946 21.5385 80.7461 21.5385 78.0242V74.7105C21.5385 74.0005 21.1834 70.5685 17.9882 67.61C17.8698 67.4916 17.6331 67.2549 17.5148 67.1366L17.3964 67.0182C12.8994 62.9946 9.5858 58.1425 7.57396 52.8171H6.74556C2.95858 52.9354 0 49.8585 0 46.1898ZM80.9467 31.9887L86.2722 30.5685L87.1006 33.5271L87.8106 36.249L82.4852 37.5508L81.7751 34.5922L80.9467 31.9887ZM76.0947 23.5863L80.7101 20.5094L82.2485 22.7579C82.3669 22.8762 82.4852 23.1129 82.6035 23.2313L84.142 25.5981L79.5266 28.5567L77.9882 26.1898C77.8698 26.0715 77.8698 25.9532 77.7515 25.8348L76.0947 23.5863ZM71.0059 18.7342L68.8757 17.0774L72.3077 12.8171L74.4379 14.5922C74.5562 14.7105 74.6746 14.8289 74.9112 14.9472L77.0414 16.7224L73.4911 20.9827L71.0059 18.7342ZM62.6036 13.7638L60.1183 12.6987L62.2485 7.60996L64.7337 8.67504C64.8521 8.79339 65.0888 8.79339 65.2071 8.91173L67.6923 9.97682L65.4438 15.0656L62.9586 14.0005C62.8402 13.8821 62.7219 13.7638 62.6036 13.7638ZM53.1361 11.0419L50.4142 10.5685L51.2426 5.12475L53.9645 5.59812C54.0828 5.59812 54.3195 5.59812 54.4379 5.71646L57.1598 6.18984L56.213 11.6336L53.4911 11.1603C53.3728 11.0419 53.2544 11.0419 53.1361 11.0419ZM40.5917 10.9236L40.1183 5.36144L45.9172 4.88806L46.2722 10.4502L40.5917 10.9236Z" fill="black"/>
<path d="M133.972 55.8638C125.246 55.8638 120.454 51.5259 120 44.4136H127.818C127.97 47.0366 129.483 49.6595 134.174 49.6595C138.108 49.6595 140.126 48.0958 140.126 45.9269C140.126 43.2535 136.747 42.5473 132.812 41.6898C127.314 40.3783 120.605 38.7642 120.605 30.5422C120.605 24.4893 125.296 20 133.569 20C141.992 20 146.633 24.5902 147.137 31.3493H139.269C139.117 28.575 137.604 26.3556 133.367 26.3556C130.24 26.3556 128.172 27.6166 128.172 29.8865C128.172 32.8121 131.602 33.6192 135.536 34.5271C141.185 35.7881 147.945 37.2005 147.945 44.9685C147.945 51.2736 143.001 55.8638 133.972 55.8638V55.8638ZM164.338 35.4351C160.303 35.4351 157.276 38.512 157.276 42.396C157.276 46.2295 160.404 49.3569 164.338 49.3569C168.171 49.3569 171.148 46.2295 171.148 42.396C171.148 38.512 168.171 35.4351 164.338 35.4351ZM164.943 55.5612C162.018 55.5612 159.193 54.6532 157.377 53.2409V64.0857H150.366V29.3317H157.377V31.3493C159.193 29.9369 162.018 29.0794 164.943 29.0794C172.005 29.0794 178.008 34.7793 178.008 42.2446C178.008 49.71 172.005 55.5612 164.943 55.5612ZM205.801 49.6595C203.279 53.4426 199.294 55.8134 193.544 55.8134C185.271 55.8134 179.924 50.0126 179.924 42.3455C179.924 34.8802 185.473 28.8272 193.594 28.8272C201.765 28.8272 206.709 34.4767 206.709 41.9924C206.709 43.0013 206.608 44.3127 206.608 44.4641H186.835C187.591 47.7427 190.063 49.8613 193.695 49.8613C196.822 49.8613 199.092 48.4994 200.555 46.4313L205.801 49.6595ZM193.544 34.5776C190.265 34.5776 187.995 36.343 187.087 39.2686H199.647C198.89 36.1412 196.368 34.5776 193.544 34.5776V34.5776ZM216.04 29.3317V31.9546C217.301 30.4918 219.975 28.8777 223.556 28.8777C229.609 28.8777 233.544 33.0643 233.544 39.319V55.2081H226.583V40.5296C226.583 37.4527 224.817 35.3342 221.841 35.3342C218.411 35.3342 216.141 37.5032 216.141 41.0845V55.2081H209.13V29.3317H216.04ZM249.584 49.3569C253.619 49.3569 256.646 46.2799 256.646 42.396C256.646 38.5624 253.518 35.4351 249.584 35.4351C245.75 35.4351 242.774 38.5624 242.774 42.396C242.774 46.2799 245.75 49.3569 249.584 49.3569ZM256.545 55.2081V53.2913C254.729 54.7037 251.904 55.5612 248.979 55.5612C241.917 55.5612 235.914 49.8613 235.914 42.396C235.914 34.9306 241.917 29.0794 248.979 29.0794C251.904 29.0794 254.729 29.9874 256.545 31.3997V20.6557H263.556V55.2081H256.545V55.2081ZM273.392 27.1122H266.381V20.6557H273.392V27.1122ZM273.392 55.2081H266.381V29.3317H273.392V55.2081ZM292.711 26.053H290.29C288.02 26.053 286.86 26.9105 286.86 29.0794V29.3317H292.711V35.5864H286.86V55.2081H279.849V35.5864H275.813V29.3317H279.849V29.029C279.849 23.4805 283.279 20.3026 289.987 20.3026H292.711V26.053ZM320 29.3317L311.324 54.3001C308.903 61.2106 305.776 64.1362 299.42 64.1362H296.898V57.831H299.016C301.337 57.831 302.85 56.5195 303.808 54.5019L294.174 29.3317H302.194L307.491 45.2711L312.736 29.3317H320V29.3317Z" fill="black"/>
</g>
<defs>
<clipPath id="clip0_15_17">
<rect width="320" height="82.9946" fill="white"/>
</clipPath>
</defs>
</svg>
