<svg width="356" height="83" viewBox="0 0 356 83" fill="none" xmlns="http://www.w3.org/2000/svg">
<g clip-path="url(#clip0_1_2)">
<path d="M70.0592 53.5271V58.1425H64.6154V82.8762H100V58.1425H94.5562V53.5271C94.5562 46.7816 89.1124 41.3378 82.3669 41.3378C75.6213 41.3378 70.0592 46.7816 70.0592 53.5271ZM94.4379 77.4324H70.0592V63.7046H94.3195V77.4324H94.4379ZM88.8757 53.5271V58.1425H75.6213V53.5271C75.6213 49.8585 78.5799 46.8999 82.2485 46.8999C85.9172 46.8999 88.8757 49.8585 88.8757 53.5271ZM0 46.1898V36.249C0 32.462 3.07692 29.5035 6.74556 29.5035H7.81065C9.94083 24.178 13.4911 19.3259 18.1065 15.3023C18.6982 13.0537 18.2249 10.5685 16.568 7.96499C15.503 6.30818 15.503 4.178 16.568 2.40285C17.6331 0.74605 19.5266 -0.200695 21.5385 0.0359911C29.4675 0.982737 33.7278 5.00641 35.858 8.20167L31.2426 11.2786C29.8225 9.14842 26.9823 6.42653 21.5385 5.59812C23.6686 9.38511 24.2604 13.1721 23.3136 16.8407V18.0242L22.3669 18.8526C17.6331 22.7579 14.0828 27.61 12.3077 33.0537L11.5976 35.0656L9.70414 34.9472H6.86391C6.15385 34.9472 5.56213 35.5389 5.56213 36.249V46.1898C5.56213 46.8999 6.15385 47.4916 6.86391 47.4916H11.716L12.3077 49.5034C13.7278 54.4739 16.8047 59.2076 21.0651 62.9946L21.1834 63.1129C21.3018 63.2313 21.5385 63.3496 21.6568 63.4679H21.7752C26.6272 67.8466 27.1006 73.1721 27.2189 74.5922V74.7105V77.4324H39.2899V71.752L42.3669 72.107C45.6805 72.462 48.9941 72.462 52.3077 71.9887L55.3846 71.5153V77.4324H59.0533V82.9946H54.9112C52.1894 82.9946 49.9408 80.7461 49.9408 78.0242V77.7875C48.284 77.9058 46.6272 77.9058 44.8521 77.9058V78.0242C44.8521 80.7461 42.6036 82.9946 39.8817 82.9946H26.5089C23.787 82.9946 21.5385 80.7461 21.5385 78.0242V74.7105C21.5385 74.0005 21.1834 70.5685 17.9882 67.61C17.8698 67.4916 17.6331 67.2549 17.5148 67.1366L17.3965 67.0182C12.8994 62.9946 9.5858 58.1425 7.57396 52.8171H6.74556C2.95858 52.9354 0 49.8585 0 46.1898ZM80.9467 31.9887L86.2722 30.5685L87.1006 33.5271L87.8106 36.249L82.4852 37.5508L81.7751 34.5922L80.9467 31.9887ZM76.0947 23.5863L80.7101 20.5094L82.2485 22.7579C82.3669 22.8762 82.4852 23.1129 82.6035 23.2313L84.142 25.5981L79.5266 28.5567L77.9882 26.1898C77.8698 26.0715 77.8698 25.9532 77.7515 25.8348L76.0947 23.5863ZM71.0059 18.7342L68.8757 17.0774L72.3077 12.8171L74.4379 14.5922C74.5562 14.7105 74.6746 14.8289 74.9112 14.9472L77.0414 16.7224L73.4911 20.9827L71.0059 18.7342ZM62.6036 13.7638L60.1183 12.6987L62.2485 7.60996L64.7337 8.67504C64.8521 8.79339 65.0888 8.79339 65.2071 8.91173L67.6923 9.97682L65.4438 15.0656L62.9586 14.0005C62.8402 13.8821 62.7219 13.7638 62.6036 13.7638ZM53.1361 11.0419L50.4142 10.5685L51.2426 5.12475L53.9645 5.59812C54.0828 5.59812 54.3195 5.59812 54.4379 5.71646L57.1598 6.18984L56.213 11.6336L53.4911 11.1603C53.3728 11.0419 53.2544 11.0419 53.1361 11.0419ZM40.5917 10.9236L40.1183 5.36144L45.9172 4.88806L46.2722 10.4502L40.5917 10.9236Z" fill="white"/>
<path d="M123 10H120V74H123V10Z" fill="white"/>
<path d="M138 54.629C138.09 53.6434 138.396 52.6577 138.918 51.672C139.441 50.6864 140.061 49.8799 140.778 49.2527C143.974 51.1942 147.005 52.1649 149.873 52.1649C151.127 52.1649 152.046 51.8811 152.628 51.3136C153.211 50.7461 153.502 50.0442 153.502 49.2079C153.502 47.8041 152.561 46.6989 150.679 45.8925L145.392 43.6523C143.332 42.7264 141.749 41.6138 140.643 40.3145C139.538 39.0152 138.986 37.365 138.986 35.3638C138.986 33.9898 139.262 32.7354 139.815 31.6004C140.367 30.4654 141.144 29.4797 142.144 28.6434C143.145 27.807 144.332 27.1574 145.706 26.6944C147.08 26.2315 148.603 26 150.276 26C153.621 26 156.996 26.8513 160.401 28.5538C160.252 30.8536 159.446 32.6458 157.982 33.9301C154.935 32.4665 152.247 31.7348 149.918 31.7348C148.723 31.7348 147.827 32.0036 147.229 32.5412C146.632 33.0789 146.333 33.6912 146.333 34.3781C146.333 35.543 147.214 36.4839 148.977 37.2007L154.353 39.4857C156.623 40.4415 158.318 41.6661 159.438 43.1595C160.558 44.6529 161.118 46.3853 161.118 48.3566C161.118 49.7605 160.864 51.0448 160.357 52.2097C159.849 53.3746 159.095 54.3826 158.094 55.2339C157.093 56.0851 155.846 56.7497 154.353 57.2276C152.86 57.7055 151.112 57.9444 149.111 57.9444C145.228 57.9444 141.524 56.8393 138 54.629ZM176.396 47.6846H172.857V57.2724C171.901 57.4516 170.706 57.5412 169.272 57.5412C167.809 57.5412 166.614 57.4516 165.688 57.2724V26.8961L166.002 26.5824C168.6 26.5227 170.758 26.4779 172.476 26.448C174.193 26.4182 175.5 26.4032 176.396 26.4032C178.039 26.4032 179.54 26.6272 180.899 27.0753C182.258 27.5233 183.415 28.1953 184.371 29.0914C185.327 29.9875 186.066 31.1001 186.589 32.4292C187.111 33.7584 187.373 35.2891 187.373 37.0215C187.373 38.7539 187.104 40.2847 186.566 41.6138C186.029 42.943 185.282 44.0556 184.326 44.9516C183.37 45.8477 182.213 46.5272 180.854 46.9901C179.495 47.4531 178.009 47.6846 176.396 47.6846ZM172.857 31.8692V42.3082C173.693 42.2784 174.358 42.256 174.85 42.241C175.343 42.2261 175.664 42.2186 175.814 42.2186C176.62 42.2186 177.292 42.0768 177.83 41.793C178.367 41.5093 178.8 41.1359 179.129 40.6729C179.458 40.21 179.697 39.6649 179.846 39.0376C179.995 38.4104 180.07 37.7533 180.07 37.0663C180.07 36.4092 179.995 35.767 179.846 35.1398C179.697 34.5125 179.465 33.96 179.151 33.4821C178.838 33.0042 178.427 32.6234 177.919 32.3396C177.412 32.0559 176.814 31.914 176.127 31.914H174.29C174.29 31.914 173.812 31.899 172.857 31.8692ZM199.111 48.2222L199.066 51.448V51.4928C200.44 51.4331 201.545 51.4032 202.382 51.4032H212.776C212.776 52.5084 212.731 53.3596 212.642 53.957C212.283 56.2569 210.76 57.4068 208.072 57.4068H196.154C194.87 57.4068 193.862 57.0335 193.13 56.2867C192.398 55.54 192.032 54.5245 192.032 53.2402V26.9857L192.346 26.672H211.656C211.835 27.5382 211.925 28.4791 211.925 29.4946C211.925 30.5102 211.716 31.5705 211.298 32.6756H199.066L199.111 35.9014V39.0376C199.888 39.0078 200.903 38.9928 202.158 38.9928H209.013C209.281 39.8292 209.416 40.7849 209.416 41.8602C209.416 42.9355 209.281 43.9212 209.013 44.8172H199.111V48.2222ZM241.853 26.3584L242.167 26.672V57.138C240.972 57.4068 239.561 57.5412 237.933 57.5412C236.305 57.5412 234.864 57.4516 233.609 57.2724L226.575 41.233C225.739 39.411 224.888 37.3053 224.022 34.9158L223.887 34.9606C224.246 39.3214 224.425 43.7867 224.425 48.3566V57.2724C223.499 57.4516 222.379 57.5412 221.065 57.5412C219.75 57.5412 218.645 57.4516 217.749 57.2724V26.8065C218.884 26.5376 220.251 26.4032 221.849 26.4032C223.447 26.4032 224.873 26.4928 226.127 26.672L233.072 42.6667C234.326 45.6237 235.252 47.8937 235.849 49.4767L236.029 49.3871C235.67 45.2354 235.491 40.8298 235.491 36.1703V30.7043C235.491 29.1511 235.805 28.0385 236.432 27.3665C237.059 26.6944 238.075 26.3584 239.479 26.3584H241.853ZM268.735 55.3011C267.779 56.0777 266.525 56.6452 264.971 57.0036C263.418 57.362 261.701 57.5412 259.819 57.5412C258.893 57.5412 257.556 57.5263 255.809 57.4964C254.062 57.4666 251.874 57.4218 249.246 57.362L248.932 57.0484V26.8961L249.246 26.5824C250.978 26.5227 252.777 26.4779 254.644 26.448C256.511 26.4182 258.475 26.4032 260.536 26.4032C263.075 26.4032 265.195 26.8065 266.898 27.6129C268.6 28.4194 269.959 29.5245 270.975 30.9283C271.99 32.3321 272.707 33.9824 273.125 35.879C273.544 37.7757 273.753 39.8142 273.753 41.9946C273.753 44.9815 273.409 47.5651 272.722 49.7455C272.035 51.9259 270.706 53.7778 268.735 55.3011ZM260.491 51.9409C264.434 51.9409 266.405 48.6255 266.405 41.9946C266.405 35.3339 264.434 32.0036 260.491 32.0036H257.96C257.96 32.0036 257.325 31.9887 256.056 31.9588V51.9857C256.593 51.9558 257.228 51.9409 257.96 51.9409H260.491ZM278.905 57.2724V26.672C279.831 26.4928 281.026 26.4032 282.489 26.4032C283.953 26.4032 285.163 26.4928 286.118 26.672V57.2724C285.163 57.4516 283.953 57.5412 282.489 57.5412C281.026 57.5412 279.831 57.4516 278.905 57.2724ZM300.142 32.7652L300.186 36.2599V39.0824H309.774C310.013 39.9785 310.133 40.9567 310.133 42.017C310.133 43.0774 310.013 44.0556 309.774 44.9516H300.186V57.2724C299.231 57.4516 298.036 57.5412 296.602 57.5412C295.168 57.5412 293.974 57.4516 293.018 57.2724V26.9409L293.332 26.672H312.507C312.686 27.4188 312.776 28.3522 312.776 29.4722C312.776 30.5923 312.47 31.4211 311.858 31.9588C311.245 32.4964 310.282 32.7652 308.968 32.7652H300.142ZM328.278 34.2437L331.28 26.672C332.056 26.4928 333.057 26.4032 334.281 26.4032C335.596 26.4032 336.731 26.5824 337.686 26.9409L338 27.2993L329.308 47.8638V57.2724C328.382 57.4516 327.188 57.5412 325.724 57.5412C324.26 57.5412 323.066 57.4516 322.14 57.2724V47.6846L313.493 27.5233C314.867 26.7168 316.181 26.3136 317.436 26.3136C318.69 26.3136 319.594 26.5302 320.146 26.9633C320.699 27.3964 321.184 28.1356 321.602 29.181L323.753 34.5125C324.529 36.4241 325.201 38.5597 325.769 40.9194H326.038C326.516 39.0376 327.262 36.8124 328.278 34.2437Z" fill="white"/>
</g>
<defs>
<clipPath id="clip0_1_2">
<rect width="356" height="82.9946" fill="white"/>
</clipPath>
</defs>
</svg>
